<svg width="143" height="40" viewBox="0 0 143 40" fill="none" xmlns="http://www.w3.org/2000/svg">
<path d="M121.991 34.8324L125.851 33.2449C126.66 34.5212 128.092 36.3888 131.859 36.3888C135.283 36.3888 137.742 34.8013 137.742 31.2527V26.708H137.462C136.653 28.171 135.003 30.5679 130.769 30.5679C125.322 30.5679 121.12 26.6457 121.12 19.2683C121.12 11.9221 125.229 7.50189 130.8 7.50189C135.096 7.50189 136.684 10.1167 137.493 11.5486H137.835V7.81317H142.256V31.4083C142.256 37.2916 137.711 39.9997 131.828 39.9997C126.287 40.0308 123.205 37.634 121.991 34.8324ZM137.773 19.2372C137.773 14.568 135.656 11.3618 131.734 11.3618C127.688 11.3618 125.633 14.817 125.633 19.2372C125.633 23.7819 127.719 26.8636 131.734 26.8636C135.625 26.8636 137.773 23.9998 137.773 19.2372Z" fill="#252631"/>
<path d="M97.7737 19.4862C97.7737 12.2956 102.038 7.53302 108.544 7.53302C115.05 7.53302 119.314 12.2956 119.314 19.4862C119.314 26.6146 115.05 31.3772 108.544 31.3772C102.038 31.4083 97.7737 26.6457 97.7737 19.4862ZM114.77 19.4862C114.77 15.066 112.777 11.2995 108.575 11.2995C104.311 11.2995 102.35 15.066 102.35 19.4862C102.35 23.9064 104.342 27.6418 108.575 27.6418C112.777 27.6418 114.77 23.9064 114.77 19.4862Z" fill="#252631"/>
<path d="M95.3145 30.9414H90.832V0.15564H95.3145V30.9414Z" fill="#252631"/>
<path d="M68.6377 24.4045C68.6377 19.1438 73.1202 18.0232 77.4781 17.494C81.6182 17.0271 83.2991 17.0582 83.2991 15.4084V15.3151C83.2991 12.7003 81.8049 11.175 78.91 11.175C75.8906 11.175 74.2096 12.7626 73.556 14.3812L69.3225 13.4162C70.8167 9.21394 74.6766 7.53302 78.8477 7.53302C82.5209 7.53302 87.8127 8.87153 87.8127 15.5952V30.9414H83.4236V27.7663H83.2368C82.3652 29.5095 80.2174 31.4395 76.4197 31.4395C72.0618 31.4395 68.6377 28.9492 68.6377 24.4045ZM83.3302 22.5991V19.6107C82.6765 20.2644 79.2213 20.638 77.7583 20.8559C75.1435 21.1983 73.0268 22.0699 73.0268 24.4667C73.0268 26.6768 74.8633 27.8286 77.4158 27.8286C81.1512 27.8286 83.3302 25.3383 83.3302 22.5991Z" fill="#252631"/>
<path d="M67.6416 11.4552H62.9101V24.1554C62.9101 26.7702 64.2175 27.2371 65.6805 27.2371C66.3964 27.2371 66.9568 27.1126 67.268 27.0504L68.0774 30.7546C67.5482 30.9414 66.5832 31.2215 65.1513 31.2215C61.6027 31.2838 58.3965 29.2605 58.4276 25.0582V11.424H55.0347V7.84428H58.4276V2.30347H62.9101V7.84428H67.6416V11.4552Z" fill="#252631"/>
<path d="M34.4277 24.4045C34.4277 19.1438 38.9102 18.0232 43.2681 17.494C47.4082 17.0271 49.0891 17.0582 49.0891 15.4084V15.3151C49.0891 12.7003 47.595 11.175 44.7 11.175C41.6806 11.175 39.9997 12.7626 39.346 14.3812L35.1126 13.4162C36.6067 9.21394 40.4666 7.53302 44.6378 7.53302C48.3109 7.53302 53.6027 8.87153 53.6027 15.5952V30.9414H49.2447V27.7663H49.058C48.1864 29.5095 46.0385 31.4395 42.2409 31.4395C37.8518 31.4395 34.4277 28.9492 34.4277 24.4045ZM49.1202 22.5991V19.6107C48.4665 20.2644 45.0113 20.638 43.5483 20.8559C40.9335 21.1983 38.8168 22.0699 38.8168 24.4667C38.8168 26.6768 40.6534 27.8286 43.2059 27.8286C46.9413 27.8286 49.1202 25.3383 49.1202 22.5991Z" fill="#252631"/>
<path fill-rule="evenodd" clip-rule="evenodd" d="M16.6536 4.17117C9.8365 4.17117 4.2023 9.86763 4.2023 17.0271C4.2023 18.1477 4.38907 19.9843 5.16727 22.0076C7.06609 26.6457 11.5174 29.883 16.6536 29.883C23.4706 29.883 29.1048 24.1866 29.1048 17.0271C29.1048 9.89876 23.4706 4.17117 16.6536 4.17117ZM22.7547 32.8714C28.9181 30.3811 33.2449 24.1866 33.2449 17.0271C33.2449 7.68866 25.8675 0 16.6224 0C7.37738 0 0 7.68866 0 17.0271C0 19.2372 0.404665 21.3539 1.15174 23.2839C1.89882 25.3072 3.14394 27.4862 5.10502 29.5406C9.58748 34.1787 17.494 37.7273 31.1904 37.3538L30.7546 33.2138C27.6729 33.3071 25.2138 33.1826 22.7547 32.8714Z" fill="#252631"/>
</svg>
